# xmcd CD database file
#
# Track frame offsets:
#	150
#	22732
#	42562
#	64650
#	92210
#	128712
#	139290
#	159280
#	181657
#	205610
#	221655
#	241937
#	263325
#	284817
#	311862
#	330362
#
# Disc length: 4670 seconds
#
# Revision: 0
# Processed by: cddbd v1.5.1PL0 Copyright (c) Steve Scherf et al.
# Submitted via: CDex 1.51
#
DISCID=df123c10
DTITLE=fordham, julia - that's live
DYEAR=2005
DGENRE=Jazz
TTITLE0=falling forward
TTITLE1=lock and key
TTITLE2=girlfriend
TTITLE3=foolish thing
TTITLE4=porcelain
TTITLE5=lovin' you
TTITLE6=roadside angel
TTITLE7=concrete love feat india arie
TTITLE8=wake up with you (the i wanna song)
TTITLE9=jump
TTITLE10=sugar
TTITLE11=love
TTITLE12=happy ever after
TTITLE13=stay
TTITLE14=more than i can bear
TTITLE15=manhattan skyline
EXTD=YEAR: 2005
EXTT0=
EXTT1=
EXTT2=
EXTT3=
EXTT4=
EXTT5=
EXTT6=
EXTT7=
EXTT8=
EXTT9=
EXTT10=
EXTT11=
EXTT12=
EXTT13=
EXTT14=
EXTT15=
PLAYORDER=
